<svg version="1.1" xmlns="http://www.w3.org/2000/svg" xmlns:xlink="http://www.w3.org/1999/xlink" width="483.48817" height="512" viewBox="0,0,483.48817,512"><g transform="translate(-78.25641,76)"><g fill="#4b4b4b" stroke="none" stroke-miterlimit="10"><path d="M561.692,134.639l-14.395,263.689c-1.078,21.11 -18.507,37.672 -39.644,37.672h-375.306c-21.137,0 -38.567,-16.562 -39.644,-37.672l-14.394,-263.689c-1.157,-22.69 16.926,-41.719 39.644,-41.719h63.356v-30.029c0,-3.496 0.173,-6.949 0.428,-10.381h-0.428c5.321,-71.752 65.401,-128.51 138.49,-128.51c0.067,0 0.133,0.006 0.2,0.006c0.067,0 0.133,-0.006 0.2,-0.006c73.09,0 133.17,56.758 138.49,128.51h-0.429c0.255,3.432 0.429,6.885 0.429,10.381v30.029h63.358c22.718,0 40.802,19.029 39.645,41.719zM360.135,233.103c0,-20.713 -16.792,-37.506 -37.505,-37.506c-20.713,0 -37.505,16.793 -37.505,37.506c0,14.158 7.938,26.334 19.517,32.719v57.459c0,9.892 8.094,17.988 17.988,17.988c9.893,0 17.988,-8.095 17.988,-17.988v-57.459c11.58,-6.384 19.517,-18.56 19.517,-32.719zM403.33,92.92v-30.029c0,-45.989 -37.367,-83.418 -83.331,-83.526c-45.963,0.108 -83.33,37.538 -83.33,83.526v30.029h166.662z"/></g></g></svg>