<svg version="1.1" xmlns="http://www.w3.org/2000/svg" xmlns:xlink="http://www.w3.org/1999/xlink" width="483.48817" height="512" viewBox="0,0,483.48817,512"><g transform="translate(-78.25642,76)"><g fill="#4b4b4b" stroke="none" stroke-miterlimit="10"><path d="M561.692,134.637l-14.395,263.691c-1.077,21.11 -18.507,37.672 -39.644,37.672h-375.306c-21.137,0 -38.567,-16.562 -39.644,-37.672l-14.394,-263.691c-1.157,-22.688 16.926,-41.717 39.644,-41.717h63.357v-30.031c0,-76.581 62.309,-138.889 138.889,-138.889c73.09,0 133.17,56.758 138.49,128.509h-55.621c-5.12,-41.181 -40.335,-73.15 -82.869,-73.15c-46.055,0 -83.53,37.475 -83.53,83.53v30.031h285.378c22.718,0 40.802,19.029 39.645,41.717zM360.135,233.103c0,-20.713 -16.792,-37.506 -37.505,-37.506c-20.714,0 -37.506,16.793 -37.506,37.506c0,14.156 7.938,26.334 19.517,32.717v57.459c0,9.892 8.095,17.988 17.989,17.988c9.893,0 17.988,-8.095 17.988,-17.988v-57.459c11.579,-6.382 19.517,-18.56 19.517,-32.717z"/></g></g></svg>