<svg version="1.1" xmlns="http://www.w3.org/2000/svg" xmlns:xlink="http://www.w3.org/1999/xlink" width="336.02455" height="328.46477" viewBox="0,0,336.02455,328.46477"><defs><linearGradient x1="78.55398" y1="211.91559" x2="156.04065" y2="211.91559" gradientUnits="userSpaceOnUse" id="color-1"><stop offset="0" stop-color="#dadcdd"/><stop offset="1" stop-color="#688096"/></linearGradient><linearGradient x1="117.2973" y1="211.91513" x2="156.04056" y2="211.91513" gradientUnits="userSpaceOnUse" id="color-2"><stop offset="0" stop-color="#dadcdd"/><stop offset="1" stop-color="#688096"/></linearGradient><linearGradient x1="112.09701" y1="172.95794" x2="122.4976" y2="183.3585" gradientUnits="userSpaceOnUse" id="color-3"><stop offset="0" stop-color="#dadcdd"/><stop offset="1" stop-color="#688096"/></linearGradient><linearGradient x1="73.35371" y1="180.36173" x2="83.75431" y2="190.76228" gradientUnits="userSpaceOnUse" id="color-4"><stop offset="0" stop-color="#dadcdd"/><stop offset="1" stop-color="#688096"/></linearGradient><linearGradient x1="150.8403" y1="180.36173" x2="161.2409" y2="190.76228" gradientUnits="userSpaceOnUse" id="color-5"><stop offset="0" stop-color="#dadcdd"/><stop offset="1" stop-color="#688096"/></linearGradient><linearGradient x1="87.97585" y1="242.32987" x2="146.61875" y2="242.32987" gradientUnits="userSpaceOnUse" id="color-6"><stop offset="0" stop-color="#9b8c81"/><stop offset="1" stop-color="#614d3e"/></linearGradient><linearGradient x1="117.29727" y1="242.32987" x2="146.61865" y2="242.32987" gradientUnits="userSpaceOnUse" id="color-7"><stop offset="0" stop-color="#9b8c81"/><stop offset="1" stop-color="#614d3e"/></linearGradient><linearGradient x1="117.29721" y1="200.84221" x2="117.29721" y2="236.8984" gradientUnits="userSpaceOnUse" id="color-8"><stop offset="0" stop-color="#9b8c81"/><stop offset="1" stop-color="#614d3e"/></linearGradient><linearGradient x1="78.03908" y1="117.88558" x2="156.55555" y2="117.88558" gradientUnits="userSpaceOnUse" id="color-9"><stop offset="0" stop-color="#f1e784"/><stop offset="1" stop-color="#d69500"/></linearGradient><linearGradient x1="117.2973" y1="117.88511" x2="156.55546" y2="117.88511" gradientUnits="userSpaceOnUse" id="color-10"><stop offset="0" stop-color="#f1e784"/><stop offset="1" stop-color="#d69500"/></linearGradient><linearGradient x1="112.0279" y1="78.41018" x2="122.56671" y2="88.94896" gradientUnits="userSpaceOnUse" id="color-11"><stop offset="0" stop-color="#f1e784"/><stop offset="1" stop-color="#d69500"/></linearGradient><linearGradient x1="72.7697" y1="85.91236" x2="83.30853" y2="96.45114" gradientUnits="userSpaceOnUse" id="color-12"><stop offset="0" stop-color="#f1e784"/><stop offset="1" stop-color="#d69500"/></linearGradient><linearGradient x1="151.28608" y1="85.91236" x2="161.82491" y2="96.45114" gradientUnits="userSpaceOnUse" id="color-13"><stop offset="0" stop-color="#f1e784"/><stop offset="1" stop-color="#d69500"/></linearGradient><linearGradient x1="87.58616" y1="148.70406" x2="147.00843" y2="148.70406" gradientUnits="userSpaceOnUse" id="color-14"><stop offset="0" stop-color="#9b8c81"/><stop offset="1" stop-color="#614d3e"/></linearGradient><linearGradient x1="117.29726" y1="148.70406" x2="147.00833" y2="148.70406" gradientUnits="userSpaceOnUse" id="color-15"><stop offset="0" stop-color="#9b8c81"/><stop offset="1" stop-color="#614d3e"/></linearGradient><linearGradient x1="117.29721" y1="106.66502" x2="117.29721" y2="143.20041" gradientUnits="userSpaceOnUse" id="color-16"><stop offset="0" stop-color="#9b8c81"/><stop offset="1" stop-color="#614d3e"/></linearGradient><linearGradient x1="78.1212" y1="306.02754" x2="156.47342" y2="306.02754" gradientUnits="userSpaceOnUse" id="color-17"><stop offset="0" stop-color="#f9cba3"/><stop offset="1" stop-color="#824336"/></linearGradient><linearGradient x1="117.2973" y1="306.02707" x2="156.47335" y2="306.02707" gradientUnits="userSpaceOnUse" id="color-18"><stop offset="0" stop-color="#f9cba3"/><stop offset="1" stop-color="#824336"/></linearGradient><linearGradient x1="112.03892" y1="266.63472" x2="122.55569" y2="277.15145" gradientUnits="userSpaceOnUse" id="color-19"><stop offset="0" stop-color="#f9cba3"/><stop offset="1" stop-color="#824336"/></linearGradient><linearGradient x1="72.86285" y1="274.1212" x2="83.37962" y2="284.63793" gradientUnits="userSpaceOnUse" id="color-20"><stop offset="0" stop-color="#f9cba3"/><stop offset="1" stop-color="#824336"/></linearGradient><linearGradient x1="151.21499" y1="274.1212" x2="161.73176" y2="284.63793" gradientUnits="userSpaceOnUse" id="color-21"><stop offset="0" stop-color="#f9cba3"/><stop offset="1" stop-color="#824336"/></linearGradient><linearGradient x1="87.64831" y1="336.78155" x2="146.94628" y2="336.78155" gradientUnits="userSpaceOnUse" id="color-22"><stop offset="0" stop-color="#9b8c81"/><stop offset="1" stop-color="#614d3e"/></linearGradient><linearGradient x1="117.29727" y1="336.78155" x2="146.94618" y2="336.78155" gradientUnits="userSpaceOnUse" id="color-23"><stop offset="0" stop-color="#9b8c81"/><stop offset="1" stop-color="#614d3e"/></linearGradient><linearGradient x1="117.29721" y1="294.83045" x2="117.29721" y2="331.28942" gradientUnits="userSpaceOnUse" id="color-24"><stop offset="0" stop-color="#9b8c81"/><stop offset="1" stop-color="#614d3e"/></linearGradient></defs><g transform="translate(-72.7697,-10.18246)"><g stroke="none"><text transform="translate(232.84,57.93888) scale(1.0895,1.0895)" font-size="40" xml:space="preserve" fill="#000000" fill-rule="nonzero" stroke-linejoin="miter" stroke-miterlimit="10" font-family="&quot;M PLUS 1p&quot;, Sans Serif" font-weight="400" text-anchor="start"><tspan x="0" dy="0">結果発表</tspan></text><g stroke-linejoin="round" stroke-miterlimit="2"><g fill-rule="evenodd"><g fill="url(#color-1)"><path d="M87.95565,237.12372l-9.40167,-43.48254l24.91442,18.09814l13.82891,-25.03184l13.82892,25.03184l24.91442,-18.09814l-9.40167,43.48254z"/></g><g fill="url(#color-2)"><path d="M117.2973,186.70782l13.82885,25.03153l24.91441,-18.09793l-9.40164,43.48237h-29.34163z"/></g><g><g fill="url(#color-3)"><path d="M112.09701,178.15787c0,-2.87203 2.32825,-5.20028 5.20029,-5.20028c2.87205,0 5.20029,2.32824 5.20029,5.20028c0,2.87203 -2.32825,5.20028 -5.20029,5.20028c-2.87205,0 -5.20029,-2.32825 -5.20029,-5.20028z"/></g><g fill="url(#color-4)"><path d="M73.35371,185.56165c0,-2.87203 2.32825,-5.20028 5.2003,-5.20028c2.87205,0 5.20029,2.32825 5.20029,5.20028c0,2.87203 -2.32825,5.20028 -5.20029,5.20028c-2.87205,0 -5.2003,-2.32825 -5.2003,-5.20028z"/></g><g fill="url(#color-5)"><path d="M150.8403,185.56165c0,-2.87203 2.32825,-5.20028 5.20029,-5.20028c2.87205,0 5.2003,2.32825 5.2003,5.20028c0,2.87203 -2.32825,5.20028 -5.2003,5.20028c-2.87205,0 -5.20029,-2.32825 -5.20029,-5.20028z"/></g></g><g fill="url(#color-6)"><path d="M87.97585,244.17493v-3.69131h58.6429v3.69131z"/></g><g fill="url(#color-7)"><path d="M117.29727,244.17493v-3.69131h29.32138v3.69131z"/></g></g><g><g fill="#ffffff" fill-rule="nonzero"><path d="M120.53017,215.97284c0.07211,-1.80281 -1.49031,-2.90853 -3.70173,-2.90853c-1.80279,0 -3.58155,1.08169 -5.57664,3.22102l-0.69708,-3.46139c1.61049,-1.39417 3.22099,-2.8845 6.5862,-2.8845c4.30267,0 6.7785,2.78835 6.73042,6.03341c-0.04808,3.58158 -5.21608,7.74007 -8.8457,10.8409h8.86974v3.14891h-13.48489v-3.00468c3.65366,-3.50947 10.04756,-8.60542 10.11967,-10.98512z"/></g><path d="M117.83548,215.51539c-0.29178,-0.10546 -0.63319,-0.15008 -1.00555,-0.15008c-1.29341,0 -2.46148,0.95459 -3.89294,2.48923c-0.58843,0.63143 -1.48041,0.88022 -2.31059,0.64495c-0.83032,-0.23526 -1.45945,-0.91402 -1.62981,-1.76044l-0.697,-3.46139c-0.16387,-0.81397 0.12304,-1.65227 0.75082,-2.19582c1.97,-1.70365 3.97556,-3.44246 8.092,-3.44246c5.86078,0 9.09431,3.94409 9.02914,8.36548c-0.02583,1.87132 -0.99771,3.91705 -2.604,5.89113c-0.71715,0.88157 -1.56045,1.76044 -2.45364,2.61768h2.78004c1.27137,0 2.30194,1.0303 2.30194,2.30128v3.14635c0,1.27098 -1.03056,2.30263 -2.30194,2.30263h-13.48185c-1.27137,0 -2.30207,-1.03166 -2.30207,-2.30263v-3.00167c0,-0.62603 0.25541,-1.22636 0.70728,-1.66039c2.17051,-2.08495 5.32021,-4.73372 7.50614,-7.0296c0.63751,-0.66929 1.18687,-1.30072 1.57478,-1.87132c0.12763,-0.18795 0.2765,-0.48135 0.32774,-0.58546c-0.03299,-0.1609 -0.21241,-0.23256 -0.39049,-0.29746zM120.53169,215.97241c0.07207,-1.80371 -1.49028,-2.90973 -3.70176,-2.90973c-1.80274,0 -3.58156,1.08169 -5.57657,3.22207l-0.69714,-3.46139c1.61048,-1.39402 3.22096,-2.88269 6.58618,-2.88269c4.30195,0 6.77547,2.78669 6.72747,6.03174c-0.048,3.58173 -5.21313,7.74216 -8.84268,10.84254h8.86675v3.14635h-13.48185v-3.00167c3.65363,-3.51007 10.04754,-8.60751 10.1196,-10.98721z" fill="url(#color-8)" fill-rule="evenodd"/></g></g><g stroke-linejoin="round" stroke-miterlimit="2"><g fill-rule="evenodd"><g fill="url(#color-9)"><path d="M87.56569,143.42871l-9.52662,-44.06042l25.24553,18.33866l14.0127,-25.36451l14.0127,25.36451l25.24553,-18.33866l-9.52662,44.06042z"/></g><g fill="url(#color-10)"><path d="M117.2973,92.34279l14.01264,25.36421l25.24553,-18.33846l-9.52659,44.06025h-29.73158z"/></g><g><g fill="url(#color-11)"><path d="M112.0279,83.67921c0,-2.9102 2.35919,-5.26939 5.26941,-5.26939c2.91021,0 5.26941,2.35918 5.26941,5.26939c0,2.9102 -2.35919,5.26939 -5.26941,5.26939c-2.91021,0 -5.26941,-2.35918 -5.26941,-5.26939z"/></g><g fill="url(#color-12)"><path d="M72.7697,91.18139c0,-2.9102 2.35919,-5.26939 5.26941,-5.26939c2.91021,0 5.26941,2.35919 5.26941,5.26939c0,2.9102 -2.35919,5.26939 -5.26941,5.26939c-2.91021,0 -5.26941,-2.35918 -5.26941,-5.26939z"/></g><g fill="url(#color-13)"><path d="M151.28608,91.18139c0,-2.9102 2.35919,-5.26939 5.26941,-5.26939c2.91021,0 5.26941,2.35919 5.26941,5.26939c0,2.9102 -2.35919,5.26939 -5.26941,5.26939c-2.91021,0 -5.26941,-2.35918 -5.26941,-5.26939z"/></g></g><g fill="url(#color-14)"><path d="M87.58616,150.57364v-3.74037h59.42227v3.74037z"/></g><g fill="url(#color-15)"><path d="M117.29726,150.57364v-3.74037h29.71107v3.74037z"/></g></g><g><g fill="#ffffff" fill-rule="nonzero"><path d="M119.78156,116.17544v19.99704h-3.38558v-15.97814l-4.28678,3.28818v-4.14067l4.31113,-3.1664z"/></g><path d="M119.78004,113.84436c1.28827,0 2.33253,1.044 2.33253,2.33324v19.99351c0,1.28787 -1.04426,2.33324 -2.33253,2.33324h-3.38255c-1.28827,0 -2.33253,-1.04536 -2.33253,-2.33324v-11.24695l-0.53473,0.40965c-0.70462,0.54118 -1.65504,0.63435 -2.45145,0.24114c-0.79642,-0.39321 -1.3006,-1.2043 -1.3006,-2.09211v-4.139c0,-0.74395 0.35347,-1.44132 0.95192,-1.88111l4.31104,-3.16488c0.40033,-0.29457 0.8841,-0.45349 1.38075,-0.45349zM119.78004,116.1776v19.99351h-3.38255v-15.97508l-4.28678,3.28681v-4.139l4.31117,-3.16624z" fill="url(#color-16)" fill-rule="evenodd"/></g></g><g stroke-linejoin="round" stroke-miterlimit="2"><g fill-rule="evenodd"><g fill="url(#color-17)"><path d="M87.62789,331.51724l-9.50669,-43.96825l25.19273,18.3003l13.98339,-25.31146l13.98339,25.31146l25.19272,-18.3003l-9.50669,43.96825z"/></g><g fill="url(#color-18)"><path d="M117.2973,280.53818l13.98333,25.31115l25.19272,-18.3001l-9.50666,43.96809h-29.66939z"/></g><g><g fill="url(#color-19)"><path d="M112.03892,271.89273c0,-2.90412 2.35426,-5.25837 5.25839,-5.25837c2.90413,0 5.25839,2.35425 5.25839,5.25837c0,2.90412 -2.35426,5.25837 -5.25839,5.25837c-2.90413,0 -5.25839,-2.35425 -5.25839,-5.25837z"/></g><g fill="url(#color-20)"><path d="M72.86285,279.37921c0,-2.90412 2.35426,-5.25836 5.25838,-5.25836c2.90413,0 5.25839,2.35425 5.25839,5.25836c0,2.90412 -2.35426,5.25837 -5.25839,5.25837c-2.90413,0 -5.25838,-2.35425 -5.25838,-5.25837z"/></g><g fill="url(#color-21)"><path d="M151.21499,279.37921c0,-2.90412 2.35426,-5.25836 5.25839,-5.25836c2.90413,0 5.25838,2.35425 5.25838,5.25836c0,2.90412 -2.35426,5.25837 -5.25838,5.25837c-2.90413,0 -5.25839,-2.35425 -5.25839,-5.25837z"/></g></g><g fill="url(#color-22)"><path d="M87.64831,338.64723v-3.73255h59.29797v3.73255z"/></g><g fill="url(#color-23)"><path d="M117.29727,338.64723v-3.73255h29.64892v3.73255z"/></g></g><g><g fill="#ffffff" fill-rule="nonzero"><path d="M116.87181,321.43238c2.18752,0 3.96184,-1.191 3.96184,-2.86811c0,-1.60419 -1.48265,-3.01394 -4.10767,-3.01394h-2.57641v-2.98964h2.47919c1.96876,0 3.71878,-1.36113 3.71878,-2.89241c0,-1.43405 -1.60417,-2.47921 -3.52433,-2.47921c-1.75001,0 -3.4028,0.4132 -5.03129,1.6285l-0.72918,-3.13547c1.60418,-1.11808 3.32989,-1.65281 5.73616,-1.65281c3.86461,0 6.90283,2.26046 6.90283,5.42024c0,2.13893 -1.7014,3.71881 -3.3785,4.44799c2.64933,0.68057 3.91322,2.52782 3.91322,4.59383c0,3.6702 -3.23266,6.1008 -7.38894,6.1008c-2.60071,0 -4.98268,-0.75349 -6.73269,-2.06601l0.80209,-3.32992c1.65279,1.2396 3.8403,2.23615 5.9549,2.23615z"/></g><path d="M110.9943,311.00331c-0.73787,-0.26934 -1.28995,-0.89279 -1.46796,-1.65842l-0.72926,-3.13501c-0.21574,-0.92834 0.15545,-1.89359 0.93708,-2.43773c1.97874,-1.37815 4.09817,-2.06859 7.06621,-2.06859c5.30677,0 9.22748,3.40572 9.22748,7.74661c0,1.57776 -0.59828,2.97231 -1.50583,4.10436c1.3888,1.32209 2.04068,3.08443 2.04068,4.93699c0,4.92879 -4.13399,8.42748 -9.71365,8.42748c-3.14386,0 -6.01293,-0.94474 -8.12839,-2.52934c-0.74403,-0.55782 -1.08501,-1.50393 -0.86721,-2.40766l0.802,-3.33052c0.18348,-0.76154 0.73787,-1.37951 1.47507,-1.64475c0.73719,-0.26524 1.55833,-0.14219 2.18505,0.32813c1.27054,0.95295 2.93236,1.7719 4.55782,1.7719c0.47647,0 0.92053,-0.0875 1.27751,-0.27071c0.15463,-0.0793 0.35657,-0.11348 0.35657,-0.27208c0,-0.17364 -0.16283,-0.28575 -0.34303,-0.38829c-0.36723,-0.20645 -0.85505,-0.29942 -1.43692,-0.29942h-2.57634c-1.28557,0 -2.32779,-1.04182 -2.32779,-2.32699v-2.98735c0,-0.56603 0.20235,-1.08556 0.53895,-1.48889c-0.44612,0.11348 -0.92272,0.09297 -1.36802,-0.06973zM116.87338,321.43375c2.18751,0 3.96186,-1.19084 3.96186,-2.86977c0,-1.6051 -1.48272,-3.0147 -4.10774,-3.0147h-2.57634v-2.98735h2.47913c1.96876,0 3.71877,-1.36174 3.71877,-2.89301c0,-1.43557 -1.60413,-2.48149 -3.52435,-2.48149c-1.75001,0 -3.40281,0.41427 -5.03128,1.62972l-0.72913,-3.13501c1.60413,-1.11701 3.32981,-1.65159 5.73607,-1.65159c3.86438,0 6.89983,2.25863 6.89983,5.41962c0,2.13968 -1.69984,3.71881 -3.37547,4.44753c2.64744,0.6795 3.91018,2.5266 3.91018,4.59382c0,3.67096 -3.22973,6.09912 -7.38586,6.09912c-2.60068,0 -4.98261,-0.75197 -6.73262,-2.06449l0.802,-3.32915c1.6528,1.24006 3.84032,2.23676 5.95496,2.23676zM117.79842,309.85349c-0.30666,0.23789 -0.72667,0.38145 -1.16814,0.38145h-2.47913c-0.10664,0 -0.21151,0.00683 -0.31432,0.02187c0.96798,-0.54962 1.95563,-0.74102 2.98787,-0.74102c0.34508,0 0.78614,0.1627 1.04303,0.27344c-0.02351,0.02461 -0.04731,0.04648 -0.06932,0.06426z" fill="url(#color-24)" fill-rule="evenodd"/></g></g></g></g></svg>