<svg version="1.1" xmlns="http://www.w3.org/2000/svg" xmlns:xlink="http://www.w3.org/1999/xlink" width="209.53199" height="144.21932" viewBox="0,0,209.53199,144.21932"><g transform="translate(-215.234,-196.06803)"><g stroke="none" stroke-width="0" stroke-miterlimit="10"><path d="M248.17535,196.09354h142.949l33.5428,108.60726l-209.43315,-0.01619z" fill="#161616"/><g fill="#7e7777"><path d="M333.73996,284.50975c0,2.0664 -6.11691,3.74153 -13.66251,3.74153c-7.54559,0 -13.66249,-1.67514 -13.66249,-3.74153c0,-2.06639 6.1169,-3.74153 13.66249,-3.74153c7.54559,0 13.66251,1.67513 13.66251,3.74153z"/><path d="M333.73993,283.35672c0,2.34182 -6.11691,4.24025 -13.66251,4.24025c-7.54559,0 -13.66251,-1.89843 -13.66251,-4.24025c0,-2.34182 6.11692,-4.24026 13.66251,-4.24026c7.54559,0 13.66251,1.89843 13.66251,4.24026z"/><path d="M333.1288,284.68448v-1.3248h0.6073v1.3248z"/><path d="M306.41776,284.68449v-1.3248h0.60729v1.3248z"/></g><g fill="#776a6d"><path d="M311.21093,281.15244v-6.51655h17.42856v6.51655z"/><path d="M328.60777,281.16341c0,1.40963 -3.89622,2.55236 -8.70246,2.55236c-4.80623,0 -8.70246,-1.14273 -8.70246,-2.55236c0,-1.40963 3.89622,-2.55236 8.70246,-2.55236c4.80623,0 8.70246,1.14273 8.70246,2.55236z"/></g><path d="M215.27994,340.28735v-35.63016h209.48605v35.63016z" fill="#0f0f0f"/><path d="M371.53788,216.00901c0,11.01311 -23.07427,19.94095 -51.53787,19.94095c-28.46359,0 -51.53787,-8.92784 -51.53787,-19.94095c0,-11.01311 23.07427,-19.94098 51.53787,-19.94098c28.46359,0 51.53787,8.92786 51.53787,19.94098z" fill="#333333"/><path d="M368.31992,214.91982c0,9.73149 -21.63355,17.62038 -48.31992,17.62038c-26.68637,0 -48.31992,-7.88889 -48.31992,-17.62038c0,-9.73149 21.63355,-17.6204 48.31992,-17.6204c26.68637,0 48.31992,7.88891 48.31992,17.6204z" fill="#1a1a1a"/></g></g></svg>