<svg version="1.1" xmlns="http://www.w3.org/2000/svg" xmlns:xlink="http://www.w3.org/1999/xlink" width="93.11766" height="121.10803" viewBox="0,0,93.11766,121.10803"><g transform="translate(-273.43161,-109.80274)"><g stroke="none" stroke-width="0" stroke-miterlimit="10"><path d="M273.47479,212.9559v-85.91391h93.07448v85.91391z" fill="#800c04"/><path d="M366.37982,125.59532c0,8.72203 -20.80715,15.79254 -46.4741,15.79254c-25.66695,0 -46.4741,-7.07055 -46.4741,-15.79254c0,-8.72203 20.80715,-15.79258 46.4741,-15.79258c25.66695,0 46.4741,7.07059 46.4741,15.79258z" fill="#b01105"/><path d="M366.37982,213.03283c0,9.87374 -20.80715,17.87794 -46.4741,17.87794c-25.66695,0 -46.4741,-8.0042 -46.4741,-17.87794c0,-9.87374 20.80715,-17.87796 46.4741,-17.87796c25.66695,0 46.4741,8.00422 46.4741,17.87796z" fill="#800c04"/></g></g></svg>