<svg version="1.1" xmlns="http://www.w3.org/2000/svg" xmlns:xlink="http://www.w3.org/1999/xlink" width="753.75375" height="399.3994" viewBox="0,0,753.75375,399.3994"><g transform="translate(56.87688,19.6997)"><g stroke="none" stroke-miterlimit="10"><path d="M-56.87687,379.6997v-399.3994h753.75375v399.3994z" fill-opacity="0.8" fill="#000000" stroke-width="0"/><path d="M344.4837,123.21313l-1.45824,26.71208c-0.1092,2.13847 -1.87478,3.81623 -4.01599,3.81623h-38.01904c-2.14121,0 -3.90689,-1.67775 -4.01599,-3.81623l-1.45813,-26.71208c-0.11721,-2.29853 1.71463,-4.2262 4.016,-4.2262h6.41805v-3.04198c0,-0.35415 0.01753,-0.70394 0.04336,-1.05161h-0.04336c0.53902,-7.26858 6.62522,-13.01824 14.02924,-13.01824c0.00679,0 0.01346,0.0006 0.02026,0.0006c0.00679,0 0.01347,-0.0006 0.02026,-0.0006c7.40413,0 13.49031,5.74966 14.02924,13.01824h-0.04346c0.02583,0.34767 0.04346,0.69746 0.04346,1.05161v3.04198h6.41826c2.30136,0 4.1333,1.92767 4.01609,4.2262zM324.06568,133.18767c0,-2.09825 -1.70106,-3.79941 -3.79931,-3.79941c-2.09825,0 -3.79931,1.70116 -3.79931,3.79941c0,1.43422 0.80412,2.66768 1.9771,3.31448v5.82068c0,1.00207 0.81993,1.82221 1.82221,1.82221c1.00218,0 1.82221,-0.82004 1.82221,-1.82221v-5.82068c1.17307,-0.6467 1.9771,-1.88016 1.9771,-3.31448zM328.4414,118.98693v-3.04198c0,-4.65875 -3.78533,-8.45036 -8.44155,-8.4613c-4.65612,0.01094 -8.44144,3.80265 -8.44144,8.4613v3.04198h16.8831z" fill="#ffffff" stroke-width="1"/><text transform="translate(168.07374,223.53624) scale(0.63302,0.63302)" font-size="40" xml:space="preserve" fill="#ffffff" stroke-width="1" font-family="&quot;M PLUS 1p&quot;, Sans Serif" font-weight="normal" text-anchor="start"><tspan x="0" dy="0">画面がロックされています</tspan></text></g></g></svg>