<svg version="1.1" xmlns="http://www.w3.org/2000/svg" xmlns:xlink="http://www.w3.org/1999/xlink" width="27.46851" height="35.04474" viewBox="0,0,27.46851,35.04474"><g transform="translate(-306.2409,-243.91436)"><g stroke="none" stroke-width="0" stroke-miterlimit="10"><g><path d="M306.25363,273.76354v-24.8607h27.45577v24.8607z" fill="#b01105"/><path d="M333.65942,248.48422c0,2.52387 -6.13784,4.56985 -13.70926,4.56985c-7.57142,0 -13.70926,-2.04599 -13.70926,-4.56985c0,-2.52387 6.13784,-4.56986 13.70926,-4.56986c7.57142,0 13.70926,2.046 13.70926,4.56986z" fill="#c91407"/><path d="M333.65942,273.7858c0,2.85714 -6.13784,5.1733 -13.70926,5.1733c-7.57142,0 -13.70926,-2.31616 -13.70926,-5.1733c0,-2.85714 6.13784,-5.1733 13.70926,-5.1733c7.57142,0 13.70926,2.31616 13.70926,5.1733z" fill="#b01105"/></g></g></g></svg>